<svg width="482" height="470" viewBox="0 0 482 470" fill="none" xmlns="http://www.w3.org/2000/svg">
<path d="M375 4L415 63.5L477.5 443L42.5 465.5L4 105L77 13L375 4Z" fill="white"/>
<path d="M77 13C82.5 43 105 279.5 105 279.5M77 13L4 105L42.5 465.5M77 13L375 4M105 279.5L415 269M105 279.5L42.5 465.5M415 269L375 4M415 269L477.5 443M375 4L415 63.5L477.5 443M477.5 443L42.5 465.5" stroke="black" stroke-width="7"/>
<path d="M295.238 211.804L206.917 111.508C205.59 110.012 204.268 108.582 202.952 107.219C201.758 105.712 200.497 104.21 199.17 102.714L198.97 102.73L206.587 187.993C206.861 191.315 207.134 194.637 207.407 197.959C207.681 201.281 207.816 204.548 207.812 207.759C210.193 207.429 212.574 207.1 214.955 206.77C217.336 206.44 219.717 206.111 222.098 205.781L222.82 214.551L186.343 217.552L185.802 210.975C189.921 210.636 192.774 209.531 194.359 207.662C196.066 205.648 197.087 203.424 197.422 200.988C197.746 198.42 197.826 196.139 197.662 194.145L189.973 98.2529C189.787 95.9939 189.601 93.7349 189.415 91.4758C189.23 89.2168 189.049 87.0242 188.874 84.8981C186.759 85.2059 184.577 85.5192 182.329 85.8379C180.081 86.1566 177.833 86.4754 175.585 86.7941L174.863 78.0238L198.583 76.0722L281.563 169.984C283.477 172.101 285.323 174.224 287.104 176.352C289.017 178.468 290.931 180.585 292.844 182.702L293.043 182.686L285.732 91.3779C285.513 88.7202 285.372 86.19 285.308 83.7871C285.233 81.2514 285.18 78.9814 285.149 76.9772C282.768 77.3069 280.387 77.6366 278.006 77.9662C275.625 78.2959 273.244 78.6256 270.863 78.9553L270.141 70.1849L306.818 67.1674L307.359 73.7452C302.453 74.2826 299.157 75.6909 297.472 77.9701C295.786 80.2493 295.025 83.1883 295.187 86.7871C295.349 90.386 295.627 94.5773 296.021 99.3611L304.806 211.017L295.238 211.804Z" fill="black"/>
</svg>
