<svg width="36" height="36" viewBox="0 0 36 36" fill="none" xmlns="http://www.w3.org/2000/svg">
<path d="M10.2923 29.8202C10.7161 30.1308 11.2282 30.0332 11.855 29.5717L18 25.0455L24.145 29.5717C24.7718 30.0332 25.2927 30.1308 25.7077 29.8202C26.1138 29.5096 26.2109 28.9949 25.9637 28.2494L23.5534 20.9897L29.7425 16.5168C30.3694 16.0641 30.6166 15.5938 30.4488 15.0968C30.2899 14.6175 29.8308 14.3602 29.0362 14.369L21.4433 14.4134L19.1213 7.12711C18.8829 6.37275 18.5121 6 18 6C17.4879 6 17.1171 6.37275 16.8787 7.12711L14.5567 14.4134L6.96379 14.369C6.17801 14.3602 5.71008 14.6175 5.55116 15.0968C5.38341 15.5938 5.63062 16.0641 6.25747 16.5168L12.4466 20.9897L10.0451 28.2494C9.78906 28.9949 9.88618 29.5096 10.2923 29.8202Z" stroke="#020202" stroke-width="2" stroke-linecap="round" stroke-linejoin="round"/>
</svg>
